<mxfile host="app.diagrams.net" modified="2023-12-03T23:43:47.478Z" agent="Mozilla/5.0 (Windows NT 10.0; Win64; x64) AppleWebKit/537.36 (KHTML, like Gecko) Chrome/119.0.0.0 Safari/537.36" etag="t2CwMBgzIP2z10I8fQ-q" version="22.1.5" type="device">
  <diagram name="Page-1" id="VAIeuU6o7ZE0KU_gJo5t">
    <mxGraphModel dx="1290" dy="557" grid="1" gridSize="10" guides="1" tooltips="1" connect="1" arrows="1" fold="1" page="1" pageScale="1" pageWidth="850" pageHeight="1100" math="0" shadow="0">
      <root>
        <mxCell id="0" />
        <mxCell id="1" parent="0" />
        <mxCell id="BNTisvWChxU5F5xub0_A-2" style="edgeStyle=none;curved=1;rounded=0;orthogonalLoop=1;jettySize=auto;html=1;entryX=1;entryY=0.5;entryDx=0;entryDy=0;fontSize=12;startSize=8;endSize=8;" parent="1" source="j-PgfeKj9e3DWOSfOx2q-2" target="j-PgfeKj9e3DWOSfOx2q-4" edge="1">
          <mxGeometry relative="1" as="geometry" />
        </mxCell>
        <mxCell id="j-PgfeKj9e3DWOSfOx2q-2" value="1) Register - POST&lt;br&gt;2) Authentication - POST&lt;br&gt;3) Update - POST" style="rounded=0;whiteSpace=wrap;html=1;fillColor=#e51400;strokeColor=#B20000;fontColor=#ffffff;" parent="1" vertex="1">
          <mxGeometry x="400" y="260" width="160" height="140" as="geometry" />
        </mxCell>
        <mxCell id="j-PgfeKj9e3DWOSfOx2q-3" value="User Authentication Service" style="text;html=1;strokeColor=#001DBC;fillColor=#0050ef;align=center;verticalAlign=middle;whiteSpace=wrap;rounded=0;fontColor=#ffffff;" parent="1" vertex="1">
          <mxGeometry x="400" y="230" width="160" height="30" as="geometry" />
        </mxCell>
        <mxCell id="BNTisvWChxU5F5xub0_A-1" style="edgeStyle=none;curved=1;rounded=0;orthogonalLoop=1;jettySize=auto;html=1;entryX=0;entryY=0.5;entryDx=0;entryDy=0;fontSize=12;startSize=8;endSize=8;" parent="1" source="j-PgfeKj9e3DWOSfOx2q-4" target="j-PgfeKj9e3DWOSfOx2q-2" edge="1">
          <mxGeometry relative="1" as="geometry" />
        </mxCell>
        <mxCell id="j-PgfeKj9e3DWOSfOx2q-4" value="API Gateway" style="whiteSpace=wrap;html=1;aspect=fixed;fillColor=#60a917;fontColor=#ffffff;strokeColor=#2D7600;" parent="1" vertex="1">
          <mxGeometry x="160" y="400" width="120" height="120" as="geometry" />
        </mxCell>
        <mxCell id="j-PgfeKj9e3DWOSfOx2q-5" value="user" style="rounded=0;whiteSpace=wrap;html=1;fillColor=#e51400;strokeColor=#B20000;fontColor=#ffffff;" parent="1" vertex="1">
          <mxGeometry x="400" y="560" width="160" height="140" as="geometry" />
        </mxCell>
        <mxCell id="j-PgfeKj9e3DWOSfOx2q-7" value="User Management Service" style="text;html=1;strokeColor=#001DBC;fillColor=#0050ef;align=center;verticalAlign=middle;whiteSpace=wrap;rounded=0;fontColor=#ffffff;" parent="1" vertex="1">
          <mxGeometry x="400" y="530" width="160" height="30" as="geometry" />
        </mxCell>
        <mxCell id="j-PgfeKj9e3DWOSfOx2q-9" value="Postgresql (users)" style="shape=cylinder3;whiteSpace=wrap;html=1;boundedLbl=1;backgroundOutline=1;size=15;fillColor=#050429;strokeColor=#10739e;fontColor=#FCFCFC;" parent="1" vertex="1">
          <mxGeometry x="640" y="190" width="120" height="120" as="geometry" />
        </mxCell>
        <mxCell id="j-PgfeKj9e3DWOSfOx2q-10" style="edgeStyle=orthogonalEdgeStyle;rounded=0;orthogonalLoop=1;jettySize=auto;html=1;entryX=0.5;entryY=1;entryDx=0;entryDy=0;entryPerimeter=0;" parent="1" source="j-PgfeKj9e3DWOSfOx2q-2" target="j-PgfeKj9e3DWOSfOx2q-9" edge="1">
          <mxGeometry relative="1" as="geometry" />
        </mxCell>
        <mxCell id="j-PgfeKj9e3DWOSfOx2q-11" style="edgeStyle=orthogonalEdgeStyle;rounded=0;orthogonalLoop=1;jettySize=auto;html=1;entryX=0.666;entryY=1.007;entryDx=0;entryDy=0;entryPerimeter=0;" parent="1" source="j-PgfeKj9e3DWOSfOx2q-5" target="j-PgfeKj9e3DWOSfOx2q-9" edge="1">
          <mxGeometry relative="1" as="geometry" />
        </mxCell>
        <mxCell id="j-PgfeKj9e3DWOSfOx2q-12" value="REDIS (cache)" style="shape=cylinder3;whiteSpace=wrap;html=1;boundedLbl=1;backgroundOutline=1;size=15;" parent="1" vertex="1">
          <mxGeometry x="640" y="750" width="80" height="90" as="geometry" />
        </mxCell>
        <mxCell id="j-PgfeKj9e3DWOSfOx2q-14" style="edgeStyle=orthogonalEdgeStyle;rounded=0;orthogonalLoop=1;jettySize=auto;html=1;entryX=0;entryY=0;entryDx=0;entryDy=52.5;entryPerimeter=0;" parent="1" source="j-PgfeKj9e3DWOSfOx2q-7" target="j-PgfeKj9e3DWOSfOx2q-12" edge="1">
          <mxGeometry relative="1" as="geometry" />
        </mxCell>
        <mxCell id="j-PgfeKj9e3DWOSfOx2q-20" style="edgeStyle=orthogonalEdgeStyle;rounded=0;orthogonalLoop=1;jettySize=auto;html=1;" parent="1" source="j-PgfeKj9e3DWOSfOx2q-15" target="j-PgfeKj9e3DWOSfOx2q-19" edge="1">
          <mxGeometry relative="1" as="geometry" />
        </mxCell>
        <mxCell id="j-PgfeKj9e3DWOSfOx2q-15" value="1)&amp;nbsp; GET /posts/{postId}&lt;br&gt;2) GET /posts/user/{userId}&lt;br&gt;3) POST /posts&lt;br&gt;4) PUT   /posts/{postId}&lt;br&gt;5) DELETE /posts/{postId}&amp;nbsp;&lt;br&gt;&amp;nbsp; &amp;nbsp;&lt;br&gt;&amp;nbsp;&lt;br&gt;&amp;nbsp;&lt;br&gt;&amp;nbsp;&amp;nbsp;" style="rounded=0;whiteSpace=wrap;html=1;fillColor=#6d8764;strokeColor=#3A5431;fontColor=#ffffff;" parent="1" vertex="1">
          <mxGeometry x="800" y="70" width="200" height="150" as="geometry" />
        </mxCell>
        <mxCell id="j-PgfeKj9e3DWOSfOx2q-42" style="edgeStyle=orthogonalEdgeStyle;rounded=0;orthogonalLoop=1;jettySize=auto;html=1;entryX=0.5;entryY=0;entryDx=0;entryDy=0;" parent="1" source="j-PgfeKj9e3DWOSfOx2q-16" target="j-PgfeKj9e3DWOSfOx2q-24" edge="1">
          <mxGeometry relative="1" as="geometry" />
        </mxCell>
        <mxCell id="j-PgfeKj9e3DWOSfOx2q-16" value="Post Service" style="text;html=1;strokeColor=#B09500;fillColor=#e3c800;align=center;verticalAlign=middle;whiteSpace=wrap;rounded=0;fontColor=#000000;" parent="1" vertex="1">
          <mxGeometry x="800" y="40" width="200" height="30" as="geometry" />
        </mxCell>
        <mxCell id="j-PgfeKj9e3DWOSfOx2q-37" style="edgeStyle=orthogonalEdgeStyle;rounded=0;orthogonalLoop=1;jettySize=auto;html=1;" parent="1" source="j-PgfeKj9e3DWOSfOx2q-17" target="j-PgfeKj9e3DWOSfOx2q-21" edge="1">
          <mxGeometry relative="1" as="geometry" />
        </mxCell>
        <mxCell id="j-PgfeKj9e3DWOSfOx2q-17" value="&lt;br&gt;&lt;br&gt;&lt;br&gt;1)&amp;nbsp; POST/friendship/sendRequest&amp;nbsp;&amp;nbsp;&lt;br&gt;2)&amp;nbsp; PUT /friendship/acceptRequest/{requestId}&amp;nbsp;&lt;br&gt;3) DELETE /friendship/cancelRequest/{requestId}&amp;nbsp;&lt;br&gt;4) DELETE   /friendship/unfriend/{friendshipId}&amp;nbsp; &amp;nbsp; &amp;nbsp;&amp;nbsp;&lt;br&gt;5) GET   /friendship/friends/{userId}&amp;nbsp; &amp;nbsp; &amp;nbsp;&lt;br&gt;&amp;nbsp; &amp;nbsp;&lt;br&gt;&amp;nbsp;&lt;br&gt;&amp;nbsp;&lt;br&gt;&amp;nbsp;&amp;nbsp;" style="rounded=0;whiteSpace=wrap;html=1;fillColor=#76608a;strokeColor=#432D57;fontColor=#ffffff;" parent="1" vertex="1">
          <mxGeometry x="760" y="650" width="280" height="120" as="geometry" />
        </mxCell>
        <mxCell id="j-PgfeKj9e3DWOSfOx2q-18" value="Friendship Service" style="text;html=1;strokeColor=#C73500;fillColor=#fa6800;align=center;verticalAlign=middle;whiteSpace=wrap;rounded=0;fontColor=#000000;" parent="1" vertex="1">
          <mxGeometry x="760" y="620" width="280" height="30" as="geometry" />
        </mxCell>
        <mxCell id="BNTisvWChxU5F5xub0_A-4" value="" style="edgeStyle=none;curved=1;rounded=0;orthogonalLoop=1;jettySize=auto;html=1;fontSize=12;startSize=8;endSize=8;" parent="1" source="j-PgfeKj9e3DWOSfOx2q-19" target="BNTisvWChxU5F5xub0_A-3" edge="1">
          <mxGeometry relative="1" as="geometry" />
        </mxCell>
        <mxCell id="j-PgfeKj9e3DWOSfOx2q-19" value="MongoDB" style="shape=cube;whiteSpace=wrap;html=1;boundedLbl=1;backgroundOutline=1;darkOpacity=0.05;darkOpacity2=0.1;fillColor=#54C6FF;" parent="1" vertex="1">
          <mxGeometry x="1170" y="290" width="120" height="80" as="geometry" />
        </mxCell>
        <mxCell id="j-PgfeKj9e3DWOSfOx2q-21" value="GraphDB" style="ellipse;shape=cloud;whiteSpace=wrap;html=1;fillColor=#008a00;fontColor=#ffffff;strokeColor=#005700;" parent="1" vertex="1">
          <mxGeometry x="1120" y="790" width="120" height="80" as="geometry" />
        </mxCell>
        <mxCell id="j-PgfeKj9e3DWOSfOx2q-45" style="edgeStyle=orthogonalEdgeStyle;rounded=0;orthogonalLoop=1;jettySize=auto;html=1;entryX=0.5;entryY=1;entryDx=0;entryDy=0;" parent="1" source="j-PgfeKj9e3DWOSfOx2q-24" target="j-PgfeKj9e3DWOSfOx2q-29" edge="1">
          <mxGeometry relative="1" as="geometry" />
        </mxCell>
        <mxCell id="j-PgfeKj9e3DWOSfOx2q-24" value="Apache Kafka" style="shape=hexagon;perimeter=hexagonPerimeter2;whiteSpace=wrap;html=1;fixedSize=1;fillColor=#ffcccc;strokeColor=#36393d;" parent="1" vertex="1">
          <mxGeometry x="1360" y="450" width="135" height="100" as="geometry" />
        </mxCell>
        <mxCell id="j-PgfeKj9e3DWOSfOx2q-29" value="Reporting Service" style="rhombus;whiteSpace=wrap;html=1;" parent="1" vertex="1">
          <mxGeometry x="1510" y="140" width="130" height="100" as="geometry" />
        </mxCell>
        <mxCell id="j-PgfeKj9e3DWOSfOx2q-30" value="Cassandra&amp;nbsp;" style="shape=cube;whiteSpace=wrap;html=1;boundedLbl=1;backgroundOutline=1;darkOpacity=0.05;darkOpacity2=0.1;fillColor=#cdeb8b;strokeColor=#36393d;" parent="1" vertex="1">
          <mxGeometry x="1710" y="160" width="120" height="80" as="geometry" />
        </mxCell>
        <mxCell id="j-PgfeKj9e3DWOSfOx2q-33" value="" style="endArrow=none;dashed=1;html=1;rounded=0;exitX=0.998;exitY=0.33;exitDx=0;exitDy=0;exitPerimeter=0;" parent="1" source="j-PgfeKj9e3DWOSfOx2q-17" target="j-PgfeKj9e3DWOSfOx2q-24" edge="1">
          <mxGeometry width="50" height="50" relative="1" as="geometry">
            <mxPoint x="1090" y="590" as="sourcePoint" />
            <mxPoint x="1140" y="540" as="targetPoint" />
            <Array as="points">
              <mxPoint x="1260" y="590" />
              <mxPoint x="1300" y="570" />
            </Array>
          </mxGeometry>
        </mxCell>
        <mxCell id="j-PgfeKj9e3DWOSfOx2q-35" style="edgeStyle=orthogonalEdgeStyle;rounded=0;orthogonalLoop=1;jettySize=auto;html=1;entryX=0;entryY=0;entryDx=0;entryDy=30;entryPerimeter=0;" parent="1" source="j-PgfeKj9e3DWOSfOx2q-29" target="j-PgfeKj9e3DWOSfOx2q-30" edge="1">
          <mxGeometry relative="1" as="geometry" />
        </mxCell>
        <mxCell id="j-PgfeKj9e3DWOSfOx2q-46" value="" style="shape=flexArrow;endArrow=classic;startArrow=classic;html=1;rounded=0;width=10.526315789473685;startSize=9.76842105263158;exitX=1.005;exitY=0.379;exitDx=0;exitDy=0;exitPerimeter=0;entryX=0.375;entryY=1;entryDx=0;entryDy=0;" parent="1" source="j-PgfeKj9e3DWOSfOx2q-17" target="j-PgfeKj9e3DWOSfOx2q-24" edge="1">
          <mxGeometry width="100" height="100" relative="1" as="geometry">
            <mxPoint x="1175" y="630" as="sourcePoint" />
            <mxPoint x="1275" y="530" as="targetPoint" />
            <Array as="points">
              <mxPoint x="1250" y="610" />
            </Array>
          </mxGeometry>
        </mxCell>
        <mxCell id="BNTisvWChxU5F5xub0_A-3" value="S3 file storage" style="whiteSpace=wrap;html=1;fontSize=16;" parent="1" vertex="1">
          <mxGeometry x="980" y="300" width="120" height="60" as="geometry" />
        </mxCell>
      </root>
    </mxGraphModel>
  </diagram>
</mxfile>
